<mxfile host="app.diagrams.net" agent="Mozilla/5.0 (Windows NT 10.0; Win64; x64; rv:136.0) Gecko/20100101 Firefox/136.0" version="26.1.3">
  <diagram name="Page-1" id="21caqkMB06WxaJQwdO4i">
    <mxGraphModel dx="4700" dy="1511" grid="1" gridSize="10" guides="1" tooltips="1" connect="1" arrows="1" fold="1" page="1" pageScale="1" pageWidth="850" pageHeight="1100" math="0" shadow="0">
      <root>
        <mxCell id="0" />
        <mxCell id="1" parent="0" />
        <mxCell id="jIrVxHAiot5lpSCf16_U-1" value="Branch" style="shape=table;startSize=30;container=1;collapsible=1;childLayout=tableLayout;fixedRows=1;rowLines=0;fontStyle=1;align=center;resizeLast=1;" parent="1" vertex="1">
          <mxGeometry x="-565" y="480" width="280" height="120" as="geometry" />
        </mxCell>
        <mxCell id="jIrVxHAiot5lpSCf16_U-2" value="" style="shape=tableRow;horizontal=0;startSize=0;swimlaneHead=0;swimlaneBody=0;fillColor=none;collapsible=0;dropTarget=0;points=[[0,0.5],[1,0.5]];portConstraint=eastwest;strokeColor=inherit;top=0;left=0;right=0;bottom=1;" parent="jIrVxHAiot5lpSCf16_U-1" vertex="1">
          <mxGeometry y="30" width="280" height="30" as="geometry" />
        </mxCell>
        <mxCell id="jIrVxHAiot5lpSCf16_U-3" value="PK" style="shape=partialRectangle;overflow=hidden;connectable=0;fillColor=none;strokeColor=inherit;top=0;left=0;bottom=0;right=0;fontStyle=1;" parent="jIrVxHAiot5lpSCf16_U-2" vertex="1">
          <mxGeometry width="30" height="30" as="geometry">
            <mxRectangle width="30" height="30" as="alternateBounds" />
          </mxGeometry>
        </mxCell>
        <mxCell id="jIrVxHAiot5lpSCf16_U-4" value="BranchID INT AUTO_INCREMENT " style="shape=partialRectangle;overflow=hidden;connectable=0;fillColor=none;align=left;strokeColor=inherit;top=0;left=0;bottom=0;right=0;spacingLeft=6;fontStyle=5;" parent="jIrVxHAiot5lpSCf16_U-2" vertex="1">
          <mxGeometry x="30" width="250" height="30" as="geometry">
            <mxRectangle width="250" height="30" as="alternateBounds" />
          </mxGeometry>
        </mxCell>
        <mxCell id="jIrVxHAiot5lpSCf16_U-5" value="" style="shape=tableRow;horizontal=0;startSize=0;swimlaneHead=0;swimlaneBody=0;fillColor=none;collapsible=0;dropTarget=0;points=[[0,0.5],[1,0.5]];portConstraint=eastwest;strokeColor=inherit;top=0;left=0;right=0;bottom=0;" parent="jIrVxHAiot5lpSCf16_U-1" vertex="1">
          <mxGeometry y="60" width="280" height="30" as="geometry" />
        </mxCell>
        <mxCell id="jIrVxHAiot5lpSCf16_U-6" value="" style="shape=partialRectangle;overflow=hidden;connectable=0;fillColor=none;strokeColor=inherit;top=0;left=0;bottom=0;right=0;" parent="jIrVxHAiot5lpSCf16_U-5" vertex="1">
          <mxGeometry width="30" height="30" as="geometry">
            <mxRectangle width="30" height="30" as="alternateBounds" />
          </mxGeometry>
        </mxCell>
        <mxCell id="jIrVxHAiot5lpSCf16_U-7" value="BranchName VARCHAR(100) NOT NULL" style="shape=partialRectangle;overflow=hidden;connectable=0;fillColor=none;align=left;strokeColor=inherit;top=0;left=0;bottom=0;right=0;spacingLeft=6;" parent="jIrVxHAiot5lpSCf16_U-5" vertex="1">
          <mxGeometry x="30" width="250" height="30" as="geometry">
            <mxRectangle width="250" height="30" as="alternateBounds" />
          </mxGeometry>
        </mxCell>
        <mxCell id="jIrVxHAiot5lpSCf16_U-8" value="" style="shape=tableRow;horizontal=0;startSize=0;swimlaneHead=0;swimlaneBody=0;fillColor=none;collapsible=0;dropTarget=0;points=[[0,0.5],[1,0.5]];portConstraint=eastwest;strokeColor=inherit;top=0;left=0;right=0;bottom=0;" parent="jIrVxHAiot5lpSCf16_U-1" vertex="1">
          <mxGeometry y="90" width="280" height="30" as="geometry" />
        </mxCell>
        <mxCell id="jIrVxHAiot5lpSCf16_U-9" value="" style="shape=partialRectangle;overflow=hidden;connectable=0;fillColor=none;strokeColor=inherit;top=0;left=0;bottom=0;right=0;" parent="jIrVxHAiot5lpSCf16_U-8" vertex="1">
          <mxGeometry width="30" height="30" as="geometry">
            <mxRectangle width="30" height="30" as="alternateBounds" />
          </mxGeometry>
        </mxCell>
        <mxCell id="jIrVxHAiot5lpSCf16_U-10" value="Address VARCHAR(255) NOT NULL" style="shape=partialRectangle;overflow=hidden;connectable=0;fillColor=none;align=left;strokeColor=inherit;top=0;left=0;bottom=0;right=0;spacingLeft=6;" parent="jIrVxHAiot5lpSCf16_U-8" vertex="1">
          <mxGeometry x="30" width="250" height="30" as="geometry">
            <mxRectangle width="250" height="30" as="alternateBounds" />
          </mxGeometry>
        </mxCell>
        <mxCell id="jIrVxHAiot5lpSCf16_U-11" value="Schedule" style="shape=table;startSize=30;container=1;collapsible=1;childLayout=tableLayout;fixedRows=1;rowLines=0;fontStyle=1;align=center;resizeLast=1;" parent="1" vertex="1">
          <mxGeometry x="-585" y="840" width="455" height="300" as="geometry" />
        </mxCell>
        <mxCell id="jIrVxHAiot5lpSCf16_U-12" value="" style="shape=tableRow;horizontal=0;startSize=0;swimlaneHead=0;swimlaneBody=0;fillColor=none;collapsible=0;dropTarget=0;points=[[0,0.5],[1,0.5]];portConstraint=eastwest;strokeColor=inherit;top=0;left=0;right=0;bottom=1;" parent="jIrVxHAiot5lpSCf16_U-11" vertex="1">
          <mxGeometry y="30" width="455" height="30" as="geometry" />
        </mxCell>
        <mxCell id="jIrVxHAiot5lpSCf16_U-13" value="PK" style="shape=partialRectangle;overflow=hidden;connectable=0;fillColor=none;strokeColor=inherit;top=0;left=0;bottom=0;right=0;fontStyle=1;" parent="jIrVxHAiot5lpSCf16_U-12" vertex="1">
          <mxGeometry width="30" height="30" as="geometry">
            <mxRectangle width="30" height="30" as="alternateBounds" />
          </mxGeometry>
        </mxCell>
        <mxCell id="jIrVxHAiot5lpSCf16_U-14" value="BranchID INT NOT NULL" style="shape=partialRectangle;overflow=hidden;connectable=0;fillColor=none;align=left;strokeColor=inherit;top=0;left=0;bottom=0;right=0;spacingLeft=6;fontStyle=5;" parent="jIrVxHAiot5lpSCf16_U-12" vertex="1">
          <mxGeometry x="30" width="425" height="30" as="geometry">
            <mxRectangle width="425" height="30" as="alternateBounds" />
          </mxGeometry>
        </mxCell>
        <mxCell id="jIrVxHAiot5lpSCf16_U-15" value="" style="shape=tableRow;horizontal=0;startSize=0;swimlaneHead=0;swimlaneBody=0;fillColor=none;collapsible=0;dropTarget=0;points=[[0,0.5],[1,0.5]];portConstraint=eastwest;strokeColor=inherit;top=0;left=0;right=0;bottom=1;" parent="jIrVxHAiot5lpSCf16_U-11" vertex="1">
          <mxGeometry y="60" width="455" height="30" as="geometry" />
        </mxCell>
        <mxCell id="jIrVxHAiot5lpSCf16_U-16" value="PK" style="shape=partialRectangle;overflow=hidden;connectable=0;fillColor=none;strokeColor=inherit;top=0;left=0;bottom=0;right=0;fontStyle=1;" parent="jIrVxHAiot5lpSCf16_U-15" vertex="1">
          <mxGeometry width="30" height="30" as="geometry">
            <mxRectangle width="30" height="30" as="alternateBounds" />
          </mxGeometry>
        </mxCell>
        <mxCell id="jIrVxHAiot5lpSCf16_U-17" value="ScheduleID INT AUTO_INCREMENT " style="shape=partialRectangle;overflow=hidden;connectable=0;fillColor=none;align=left;strokeColor=inherit;top=0;left=0;bottom=0;right=0;spacingLeft=6;fontStyle=5;" parent="jIrVxHAiot5lpSCf16_U-15" vertex="1">
          <mxGeometry x="30" width="425" height="30" as="geometry">
            <mxRectangle width="425" height="30" as="alternateBounds" />
          </mxGeometry>
        </mxCell>
        <mxCell id="jIrVxHAiot5lpSCf16_U-18" value="" style="shape=tableRow;horizontal=0;startSize=0;swimlaneHead=0;swimlaneBody=0;fillColor=none;collapsible=0;dropTarget=0;points=[[0,0.5],[1,0.5]];portConstraint=eastwest;strokeColor=inherit;top=0;left=0;right=0;bottom=0;" parent="jIrVxHAiot5lpSCf16_U-11" vertex="1">
          <mxGeometry y="90" width="455" height="30" as="geometry" />
        </mxCell>
        <mxCell id="jIrVxHAiot5lpSCf16_U-19" value="" style="shape=partialRectangle;overflow=hidden;connectable=0;fillColor=none;strokeColor=inherit;top=0;left=0;bottom=0;right=0;" parent="jIrVxHAiot5lpSCf16_U-18" vertex="1">
          <mxGeometry width="30" height="30" as="geometry">
            <mxRectangle width="30" height="30" as="alternateBounds" />
          </mxGeometry>
        </mxCell>
        <mxCell id="jIrVxHAiot5lpSCf16_U-20" value="StartDay ENUM(&#39;Mon&#39;,&#39;Tue&#39;,&#39;Wed&#39;,&#39;Thu&#39;,&#39;Fri&#39;,&#39;Sat&#39;,&#39;Sun&#39;) NOT NULL" style="shape=partialRectangle;overflow=hidden;connectable=0;fillColor=none;align=left;strokeColor=inherit;top=0;left=0;bottom=0;right=0;spacingLeft=6;" parent="jIrVxHAiot5lpSCf16_U-18" vertex="1">
          <mxGeometry x="30" width="425" height="30" as="geometry">
            <mxRectangle width="425" height="30" as="alternateBounds" />
          </mxGeometry>
        </mxCell>
        <mxCell id="jIrVxHAiot5lpSCf16_U-21" value="" style="shape=tableRow;horizontal=0;startSize=0;swimlaneHead=0;swimlaneBody=0;fillColor=none;collapsible=0;dropTarget=0;points=[[0,0.5],[1,0.5]];portConstraint=eastwest;strokeColor=inherit;top=0;left=0;right=0;bottom=0;" parent="jIrVxHAiot5lpSCf16_U-11" vertex="1">
          <mxGeometry y="120" width="455" height="30" as="geometry" />
        </mxCell>
        <mxCell id="jIrVxHAiot5lpSCf16_U-22" value="" style="shape=partialRectangle;overflow=hidden;connectable=0;fillColor=none;strokeColor=inherit;top=0;left=0;bottom=0;right=0;" parent="jIrVxHAiot5lpSCf16_U-21" vertex="1">
          <mxGeometry width="30" height="30" as="geometry">
            <mxRectangle width="30" height="30" as="alternateBounds" />
          </mxGeometry>
        </mxCell>
        <mxCell id="jIrVxHAiot5lpSCf16_U-23" value="EndDay ENUM(&#39;Mon&#39;,&#39;Tue&#39;,&#39;Wed&#39;,&#39;Thu&#39;,&#39;Fri&#39;,&#39;Sat&#39;,&#39;Sun&#39;) NOT NULL" style="shape=partialRectangle;overflow=hidden;connectable=0;fillColor=none;align=left;strokeColor=inherit;top=0;left=0;bottom=0;right=0;spacingLeft=6;" parent="jIrVxHAiot5lpSCf16_U-21" vertex="1">
          <mxGeometry x="30" width="425" height="30" as="geometry">
            <mxRectangle width="425" height="30" as="alternateBounds" />
          </mxGeometry>
        </mxCell>
        <mxCell id="jIrVxHAiot5lpSCf16_U-24" value="" style="shape=tableRow;horizontal=0;startSize=0;swimlaneHead=0;swimlaneBody=0;fillColor=none;collapsible=0;dropTarget=0;points=[[0,0.5],[1,0.5]];portConstraint=eastwest;strokeColor=inherit;top=0;left=0;right=0;bottom=0;" parent="jIrVxHAiot5lpSCf16_U-11" vertex="1">
          <mxGeometry y="150" width="455" height="30" as="geometry" />
        </mxCell>
        <mxCell id="jIrVxHAiot5lpSCf16_U-25" value="" style="shape=partialRectangle;overflow=hidden;connectable=0;fillColor=none;strokeColor=inherit;top=0;left=0;bottom=0;right=0;" parent="jIrVxHAiot5lpSCf16_U-24" vertex="1">
          <mxGeometry width="30" height="30" as="geometry">
            <mxRectangle width="30" height="30" as="alternateBounds" />
          </mxGeometry>
        </mxCell>
        <mxCell id="jIrVxHAiot5lpSCf16_U-26" value="OpenTime TIME NOT NULL" style="shape=partialRectangle;overflow=hidden;connectable=0;fillColor=none;align=left;strokeColor=inherit;top=0;left=0;bottom=0;right=0;spacingLeft=6;" parent="jIrVxHAiot5lpSCf16_U-24" vertex="1">
          <mxGeometry x="30" width="425" height="30" as="geometry">
            <mxRectangle width="425" height="30" as="alternateBounds" />
          </mxGeometry>
        </mxCell>
        <mxCell id="jIrVxHAiot5lpSCf16_U-27" value="" style="shape=tableRow;horizontal=0;startSize=0;swimlaneHead=0;swimlaneBody=0;fillColor=none;collapsible=0;dropTarget=0;points=[[0,0.5],[1,0.5]];portConstraint=eastwest;strokeColor=inherit;top=0;left=0;right=0;bottom=0;" parent="jIrVxHAiot5lpSCf16_U-11" vertex="1">
          <mxGeometry y="180" width="455" height="30" as="geometry" />
        </mxCell>
        <mxCell id="jIrVxHAiot5lpSCf16_U-28" value="" style="shape=partialRectangle;overflow=hidden;connectable=0;fillColor=none;strokeColor=inherit;top=0;left=0;bottom=0;right=0;" parent="jIrVxHAiot5lpSCf16_U-27" vertex="1">
          <mxGeometry width="30" height="30" as="geometry">
            <mxRectangle width="30" height="30" as="alternateBounds" />
          </mxGeometry>
        </mxCell>
        <mxCell id="jIrVxHAiot5lpSCf16_U-29" value="CloseTime TIME NOT NULL" style="shape=partialRectangle;overflow=hidden;connectable=0;fillColor=none;align=left;strokeColor=inherit;top=0;left=0;bottom=0;right=0;spacingLeft=6;" parent="jIrVxHAiot5lpSCf16_U-27" vertex="1">
          <mxGeometry x="30" width="425" height="30" as="geometry">
            <mxRectangle width="425" height="30" as="alternateBounds" />
          </mxGeometry>
        </mxCell>
        <mxCell id="jIrVxHAiot5lpSCf16_U-30" value="" style="shape=tableRow;horizontal=0;startSize=0;swimlaneHead=0;swimlaneBody=0;fillColor=none;collapsible=0;dropTarget=0;points=[[0,0.5],[1,0.5]];portConstraint=eastwest;strokeColor=inherit;top=0;left=0;right=0;bottom=0;" parent="jIrVxHAiot5lpSCf16_U-11" vertex="1">
          <mxGeometry y="210" width="455" height="30" as="geometry" />
        </mxCell>
        <mxCell id="jIrVxHAiot5lpSCf16_U-31" value="" style="shape=partialRectangle;overflow=hidden;connectable=0;fillColor=none;strokeColor=inherit;top=0;left=0;bottom=0;right=0;" parent="jIrVxHAiot5lpSCf16_U-30" vertex="1">
          <mxGeometry width="30" height="30" as="geometry">
            <mxRectangle width="30" height="30" as="alternateBounds" />
          </mxGeometry>
        </mxCell>
        <mxCell id="jIrVxHAiot5lpSCf16_U-32" value="FOREIGN KEY (BranchID) REFERENCES Branch(BranchID)" style="shape=partialRectangle;overflow=hidden;connectable=0;fillColor=none;align=left;strokeColor=inherit;top=0;left=0;bottom=0;right=0;spacingLeft=6;" parent="jIrVxHAiot5lpSCf16_U-30" vertex="1">
          <mxGeometry x="30" width="425" height="30" as="geometry">
            <mxRectangle width="425" height="30" as="alternateBounds" />
          </mxGeometry>
        </mxCell>
        <mxCell id="jIrVxHAiot5lpSCf16_U-33" value="" style="shape=tableRow;horizontal=0;startSize=0;swimlaneHead=0;swimlaneBody=0;fillColor=none;collapsible=0;dropTarget=0;points=[[0,0.5],[1,0.5]];portConstraint=eastwest;strokeColor=inherit;top=0;left=0;right=0;bottom=0;" parent="jIrVxHAiot5lpSCf16_U-11" vertex="1">
          <mxGeometry y="240" width="455" height="30" as="geometry" />
        </mxCell>
        <mxCell id="jIrVxHAiot5lpSCf16_U-34" value="" style="shape=partialRectangle;overflow=hidden;connectable=0;fillColor=none;strokeColor=inherit;top=0;left=0;bottom=0;right=0;" parent="jIrVxHAiot5lpSCf16_U-33" vertex="1">
          <mxGeometry width="30" height="30" as="geometry">
            <mxRectangle width="30" height="30" as="alternateBounds" />
          </mxGeometry>
        </mxCell>
        <mxCell id="jIrVxHAiot5lpSCf16_U-35" value="CHECK (FIND_IN_SET(StartDay, &#39;Mon,Tue,Wed,Thu,Fri,Sat,Sun&#39;) &lt;=" style="shape=partialRectangle;overflow=hidden;connectable=0;fillColor=none;align=left;strokeColor=inherit;top=0;left=0;bottom=0;right=0;spacingLeft=6;" parent="jIrVxHAiot5lpSCf16_U-33" vertex="1">
          <mxGeometry x="30" width="425" height="30" as="geometry">
            <mxRectangle width="425" height="30" as="alternateBounds" />
          </mxGeometry>
        </mxCell>
        <mxCell id="jIrVxHAiot5lpSCf16_U-36" value="" style="shape=tableRow;horizontal=0;startSize=0;swimlaneHead=0;swimlaneBody=0;fillColor=none;collapsible=0;dropTarget=0;points=[[0,0.5],[1,0.5]];portConstraint=eastwest;strokeColor=inherit;top=0;left=0;right=0;bottom=0;" parent="jIrVxHAiot5lpSCf16_U-11" vertex="1">
          <mxGeometry y="270" width="455" height="30" as="geometry" />
        </mxCell>
        <mxCell id="jIrVxHAiot5lpSCf16_U-37" value="" style="shape=partialRectangle;overflow=hidden;connectable=0;fillColor=none;strokeColor=inherit;top=0;left=0;bottom=0;right=0;" parent="jIrVxHAiot5lpSCf16_U-36" vertex="1">
          <mxGeometry width="30" height="30" as="geometry">
            <mxRectangle width="30" height="30" as="alternateBounds" />
          </mxGeometry>
        </mxCell>
        <mxCell id="jIrVxHAiot5lpSCf16_U-38" value="FIND_IN_SET(EndDay, &#39;Mon,Tue,Wed,Thu,Fri,Sat,Sun&#39;))" style="shape=partialRectangle;overflow=hidden;connectable=0;fillColor=none;align=left;strokeColor=inherit;top=0;left=0;bottom=0;right=0;spacingLeft=6;" parent="jIrVxHAiot5lpSCf16_U-36" vertex="1">
          <mxGeometry x="30" width="425" height="30" as="geometry">
            <mxRectangle width="425" height="30" as="alternateBounds" />
          </mxGeometry>
        </mxCell>
        <mxCell id="jIrVxHAiot5lpSCf16_U-39" value="Publisher" style="shape=table;startSize=30;container=1;collapsible=1;childLayout=tableLayout;fixedRows=1;rowLines=0;fontStyle=1;align=center;resizeLast=1;" parent="1" vertex="1">
          <mxGeometry x="400" y="100" width="290" height="120" as="geometry" />
        </mxCell>
        <mxCell id="jIrVxHAiot5lpSCf16_U-40" value="" style="shape=tableRow;horizontal=0;startSize=0;swimlaneHead=0;swimlaneBody=0;fillColor=none;collapsible=0;dropTarget=0;points=[[0,0.5],[1,0.5]];portConstraint=eastwest;strokeColor=inherit;top=0;left=0;right=0;bottom=1;" parent="jIrVxHAiot5lpSCf16_U-39" vertex="1">
          <mxGeometry y="30" width="290" height="30" as="geometry" />
        </mxCell>
        <mxCell id="jIrVxHAiot5lpSCf16_U-41" value="PK" style="shape=partialRectangle;overflow=hidden;connectable=0;fillColor=none;strokeColor=inherit;top=0;left=0;bottom=0;right=0;fontStyle=1;" parent="jIrVxHAiot5lpSCf16_U-40" vertex="1">
          <mxGeometry width="30" height="30" as="geometry">
            <mxRectangle width="30" height="30" as="alternateBounds" />
          </mxGeometry>
        </mxCell>
        <mxCell id="jIrVxHAiot5lpSCf16_U-42" value="PublisherID INT AUTO_INCREMENT " style="shape=partialRectangle;overflow=hidden;connectable=0;fillColor=none;align=left;strokeColor=inherit;top=0;left=0;bottom=0;right=0;spacingLeft=6;fontStyle=5;" parent="jIrVxHAiot5lpSCf16_U-40" vertex="1">
          <mxGeometry x="30" width="260" height="30" as="geometry">
            <mxRectangle width="260" height="30" as="alternateBounds" />
          </mxGeometry>
        </mxCell>
        <mxCell id="jIrVxHAiot5lpSCf16_U-43" value="" style="shape=tableRow;horizontal=0;startSize=0;swimlaneHead=0;swimlaneBody=0;fillColor=none;collapsible=0;dropTarget=0;points=[[0,0.5],[1,0.5]];portConstraint=eastwest;strokeColor=inherit;top=0;left=0;right=0;bottom=0;" parent="jIrVxHAiot5lpSCf16_U-39" vertex="1">
          <mxGeometry y="60" width="290" height="30" as="geometry" />
        </mxCell>
        <mxCell id="jIrVxHAiot5lpSCf16_U-44" value="" style="shape=partialRectangle;overflow=hidden;connectable=0;fillColor=none;strokeColor=inherit;top=0;left=0;bottom=0;right=0;" parent="jIrVxHAiot5lpSCf16_U-43" vertex="1">
          <mxGeometry width="30" height="30" as="geometry">
            <mxRectangle width="30" height="30" as="alternateBounds" />
          </mxGeometry>
        </mxCell>
        <mxCell id="jIrVxHAiot5lpSCf16_U-45" value="PublisherName VARCHAR(100) NOT NULL" style="shape=partialRectangle;overflow=hidden;connectable=0;fillColor=none;align=left;strokeColor=inherit;top=0;left=0;bottom=0;right=0;spacingLeft=6;" parent="jIrVxHAiot5lpSCf16_U-43" vertex="1">
          <mxGeometry x="30" width="260" height="30" as="geometry">
            <mxRectangle width="260" height="30" as="alternateBounds" />
          </mxGeometry>
        </mxCell>
        <mxCell id="jIrVxHAiot5lpSCf16_U-46" value="" style="shape=tableRow;horizontal=0;startSize=0;swimlaneHead=0;swimlaneBody=0;fillColor=none;collapsible=0;dropTarget=0;points=[[0,0.5],[1,0.5]];portConstraint=eastwest;strokeColor=inherit;top=0;left=0;right=0;bottom=0;" parent="jIrVxHAiot5lpSCf16_U-39" vertex="1">
          <mxGeometry y="90" width="290" height="30" as="geometry" />
        </mxCell>
        <mxCell id="jIrVxHAiot5lpSCf16_U-47" value="" style="shape=partialRectangle;overflow=hidden;connectable=0;fillColor=none;strokeColor=inherit;top=0;left=0;bottom=0;right=0;" parent="jIrVxHAiot5lpSCf16_U-46" vertex="1">
          <mxGeometry width="30" height="30" as="geometry">
            <mxRectangle width="30" height="30" as="alternateBounds" />
          </mxGeometry>
        </mxCell>
        <mxCell id="jIrVxHAiot5lpSCf16_U-48" value="ContactInfo VARCHAR(255)" style="shape=partialRectangle;overflow=hidden;connectable=0;fillColor=none;align=left;strokeColor=inherit;top=0;left=0;bottom=0;right=0;spacingLeft=6;" parent="jIrVxHAiot5lpSCf16_U-46" vertex="1">
          <mxGeometry x="30" width="260" height="30" as="geometry">
            <mxRectangle width="260" height="30" as="alternateBounds" />
          </mxGeometry>
        </mxCell>
        <mxCell id="jIrVxHAiot5lpSCf16_U-49" value="Book" style="shape=table;startSize=25;container=1;collapsible=1;childLayout=tableLayout;fixedRows=1;rowLines=0;fontStyle=1;align=center;resizeLast=1;" parent="1" vertex="1">
          <mxGeometry x="450" y="515" width="320" height="270" as="geometry" />
        </mxCell>
        <mxCell id="jIrVxHAiot5lpSCf16_U-50" value="" style="shape=tableRow;horizontal=0;startSize=0;swimlaneHead=0;swimlaneBody=0;fillColor=none;collapsible=0;dropTarget=0;points=[[0,0.5],[1,0.5]];portConstraint=eastwest;strokeColor=inherit;top=0;left=0;right=0;bottom=1;" parent="jIrVxHAiot5lpSCf16_U-49" vertex="1">
          <mxGeometry y="25" width="320" height="30" as="geometry" />
        </mxCell>
        <mxCell id="jIrVxHAiot5lpSCf16_U-51" value="PK" style="shape=partialRectangle;overflow=hidden;connectable=0;fillColor=none;strokeColor=inherit;top=0;left=0;bottom=0;right=0;fontStyle=1;" parent="jIrVxHAiot5lpSCf16_U-50" vertex="1">
          <mxGeometry width="30" height="30" as="geometry">
            <mxRectangle width="30" height="30" as="alternateBounds" />
          </mxGeometry>
        </mxCell>
        <mxCell id="jIrVxHAiot5lpSCf16_U-52" value="PublisherID INT NOT NULL" style="shape=partialRectangle;overflow=hidden;connectable=0;fillColor=none;align=left;strokeColor=inherit;top=0;left=0;bottom=0;right=0;spacingLeft=6;fontStyle=5;" parent="jIrVxHAiot5lpSCf16_U-50" vertex="1">
          <mxGeometry x="30" width="290" height="30" as="geometry">
            <mxRectangle width="290" height="30" as="alternateBounds" />
          </mxGeometry>
        </mxCell>
        <mxCell id="jIrVxHAiot5lpSCf16_U-53" value="" style="shape=tableRow;horizontal=0;startSize=0;swimlaneHead=0;swimlaneBody=0;fillColor=none;collapsible=0;dropTarget=0;points=[[0,0.5],[1,0.5]];portConstraint=eastwest;strokeColor=inherit;top=0;left=0;right=0;bottom=1;" parent="jIrVxHAiot5lpSCf16_U-49" vertex="1">
          <mxGeometry y="55" width="320" height="30" as="geometry" />
        </mxCell>
        <mxCell id="jIrVxHAiot5lpSCf16_U-54" value="PK" style="shape=partialRectangle;overflow=hidden;connectable=0;fillColor=none;strokeColor=inherit;top=0;left=0;bottom=0;right=0;fontStyle=1;" parent="jIrVxHAiot5lpSCf16_U-53" vertex="1">
          <mxGeometry width="30" height="30" as="geometry">
            <mxRectangle width="30" height="30" as="alternateBounds" />
          </mxGeometry>
        </mxCell>
        <mxCell id="jIrVxHAiot5lpSCf16_U-55" value="ISBN CHAR(17) " style="shape=partialRectangle;overflow=hidden;connectable=0;fillColor=none;align=left;strokeColor=inherit;top=0;left=0;bottom=0;right=0;spacingLeft=6;fontStyle=5;" parent="jIrVxHAiot5lpSCf16_U-53" vertex="1">
          <mxGeometry x="30" width="290" height="30" as="geometry">
            <mxRectangle width="290" height="30" as="alternateBounds" />
          </mxGeometry>
        </mxCell>
        <mxCell id="jIrVxHAiot5lpSCf16_U-56" value="" style="shape=tableRow;horizontal=0;startSize=0;swimlaneHead=0;swimlaneBody=0;fillColor=none;collapsible=0;dropTarget=0;points=[[0,0.5],[1,0.5]];portConstraint=eastwest;strokeColor=inherit;top=0;left=0;right=0;bottom=0;" parent="jIrVxHAiot5lpSCf16_U-49" vertex="1">
          <mxGeometry y="85" width="320" height="30" as="geometry" />
        </mxCell>
        <mxCell id="jIrVxHAiot5lpSCf16_U-57" value="" style="shape=partialRectangle;overflow=hidden;connectable=0;fillColor=none;strokeColor=inherit;top=0;left=0;bottom=0;right=0;" parent="jIrVxHAiot5lpSCf16_U-56" vertex="1">
          <mxGeometry width="30" height="30" as="geometry">
            <mxRectangle width="30" height="30" as="alternateBounds" />
          </mxGeometry>
        </mxCell>
        <mxCell id="jIrVxHAiot5lpSCf16_U-58" value="Title VARCHAR(255) NOT NULL" style="shape=partialRectangle;overflow=hidden;connectable=0;fillColor=none;align=left;strokeColor=inherit;top=0;left=0;bottom=0;right=0;spacingLeft=6;" parent="jIrVxHAiot5lpSCf16_U-56" vertex="1">
          <mxGeometry x="30" width="290" height="30" as="geometry">
            <mxRectangle width="290" height="30" as="alternateBounds" />
          </mxGeometry>
        </mxCell>
        <mxCell id="jIrVxHAiot5lpSCf16_U-59" value="" style="shape=tableRow;horizontal=0;startSize=0;swimlaneHead=0;swimlaneBody=0;fillColor=none;collapsible=0;dropTarget=0;points=[[0,0.5],[1,0.5]];portConstraint=eastwest;strokeColor=inherit;top=0;left=0;right=0;bottom=0;" parent="jIrVxHAiot5lpSCf16_U-49" vertex="1">
          <mxGeometry y="115" width="320" height="30" as="geometry" />
        </mxCell>
        <mxCell id="jIrVxHAiot5lpSCf16_U-60" value="" style="shape=partialRectangle;overflow=hidden;connectable=0;fillColor=none;strokeColor=inherit;top=0;left=0;bottom=0;right=0;" parent="jIrVxHAiot5lpSCf16_U-59" vertex="1">
          <mxGeometry width="30" height="30" as="geometry">
            <mxRectangle width="30" height="30" as="alternateBounds" />
          </mxGeometry>
        </mxCell>
        <mxCell id="jIrVxHAiot5lpSCf16_U-61" value="Category ENUM(&#39;Fiction&#39;,&#39;Non-Fiction&#39;,&#39;Academic&#39;,&#39;Other&#39;) NOT NULL" style="shape=partialRectangle;overflow=hidden;connectable=0;fillColor=none;align=left;strokeColor=inherit;top=0;left=0;bottom=0;right=0;spacingLeft=6;" parent="jIrVxHAiot5lpSCf16_U-59" vertex="1">
          <mxGeometry x="30" width="290" height="30" as="geometry">
            <mxRectangle width="290" height="30" as="alternateBounds" />
          </mxGeometry>
        </mxCell>
        <mxCell id="jIrVxHAiot5lpSCf16_U-62" value="" style="shape=tableRow;horizontal=0;startSize=0;swimlaneHead=0;swimlaneBody=0;fillColor=none;collapsible=0;dropTarget=0;points=[[0,0.5],[1,0.5]];portConstraint=eastwest;strokeColor=inherit;top=0;left=0;right=0;bottom=0;" parent="jIrVxHAiot5lpSCf16_U-49" vertex="1">
          <mxGeometry y="145" width="320" height="30" as="geometry" />
        </mxCell>
        <mxCell id="jIrVxHAiot5lpSCf16_U-63" value="" style="shape=partialRectangle;overflow=hidden;connectable=0;fillColor=none;strokeColor=inherit;top=0;left=0;bottom=0;right=0;" parent="jIrVxHAiot5lpSCf16_U-62" vertex="1">
          <mxGeometry width="30" height="30" as="geometry">
            <mxRectangle width="30" height="30" as="alternateBounds" />
          </mxGeometry>
        </mxCell>
        <mxCell id="jIrVxHAiot5lpSCf16_U-64" value="Format ENUM(&#39;Hardcover&#39;,&#39;Paperback&#39;,&#39;eBook&#39;) NOT NULL" style="shape=partialRectangle;overflow=hidden;connectable=0;fillColor=none;align=left;strokeColor=inherit;top=0;left=0;bottom=0;right=0;spacingLeft=6;" parent="jIrVxHAiot5lpSCf16_U-62" vertex="1">
          <mxGeometry x="30" width="290" height="30" as="geometry">
            <mxRectangle width="290" height="30" as="alternateBounds" />
          </mxGeometry>
        </mxCell>
        <mxCell id="jIrVxHAiot5lpSCf16_U-65" value="" style="shape=tableRow;horizontal=0;startSize=0;swimlaneHead=0;swimlaneBody=0;fillColor=none;collapsible=0;dropTarget=0;points=[[0,0.5],[1,0.5]];portConstraint=eastwest;strokeColor=inherit;top=0;left=0;right=0;bottom=0;" parent="jIrVxHAiot5lpSCf16_U-49" vertex="1">
          <mxGeometry y="175" width="320" height="30" as="geometry" />
        </mxCell>
        <mxCell id="jIrVxHAiot5lpSCf16_U-66" value="" style="shape=partialRectangle;overflow=hidden;connectable=0;fillColor=none;strokeColor=inherit;top=0;left=0;bottom=0;right=0;" parent="jIrVxHAiot5lpSCf16_U-65" vertex="1">
          <mxGeometry width="30" height="30" as="geometry">
            <mxRectangle width="30" height="30" as="alternateBounds" />
          </mxGeometry>
        </mxCell>
        <mxCell id="jIrVxHAiot5lpSCf16_U-67" value="NumberOfPages INT CHECK (NumberOfPages &gt; 0)" style="shape=partialRectangle;overflow=hidden;connectable=0;fillColor=none;align=left;strokeColor=inherit;top=0;left=0;bottom=0;right=0;spacingLeft=6;" parent="jIrVxHAiot5lpSCf16_U-65" vertex="1">
          <mxGeometry x="30" width="290" height="30" as="geometry">
            <mxRectangle width="290" height="30" as="alternateBounds" />
          </mxGeometry>
        </mxCell>
        <mxCell id="jIrVxHAiot5lpSCf16_U-68" value="" style="shape=tableRow;horizontal=0;startSize=0;swimlaneHead=0;swimlaneBody=0;fillColor=none;collapsible=0;dropTarget=0;points=[[0,0.5],[1,0.5]];portConstraint=eastwest;strokeColor=inherit;top=0;left=0;right=0;bottom=0;" parent="jIrVxHAiot5lpSCf16_U-49" vertex="1">
          <mxGeometry y="205" width="320" height="30" as="geometry" />
        </mxCell>
        <mxCell id="jIrVxHAiot5lpSCf16_U-69" value="" style="shape=partialRectangle;overflow=hidden;connectable=0;fillColor=none;strokeColor=inherit;top=0;left=0;bottom=0;right=0;" parent="jIrVxHAiot5lpSCf16_U-68" vertex="1">
          <mxGeometry width="30" height="30" as="geometry">
            <mxRectangle width="30" height="30" as="alternateBounds" />
          </mxGeometry>
        </mxCell>
        <mxCell id="jIrVxHAiot5lpSCf16_U-70" value="Price DECIMAL(10,2) CHECK (Price &gt;= 0)" style="shape=partialRectangle;overflow=hidden;connectable=0;fillColor=none;align=left;strokeColor=inherit;top=0;left=0;bottom=0;right=0;spacingLeft=6;" parent="jIrVxHAiot5lpSCf16_U-68" vertex="1">
          <mxGeometry x="30" width="290" height="30" as="geometry">
            <mxRectangle width="290" height="30" as="alternateBounds" />
          </mxGeometry>
        </mxCell>
        <mxCell id="jIrVxHAiot5lpSCf16_U-71" value="" style="shape=tableRow;horizontal=0;startSize=0;swimlaneHead=0;swimlaneBody=0;fillColor=none;collapsible=0;dropTarget=0;points=[[0,0.5],[1,0.5]];portConstraint=eastwest;strokeColor=inherit;top=0;left=0;right=0;bottom=0;" parent="jIrVxHAiot5lpSCf16_U-49" vertex="1">
          <mxGeometry y="235" width="320" height="30" as="geometry" />
        </mxCell>
        <mxCell id="jIrVxHAiot5lpSCf16_U-72" value="" style="shape=partialRectangle;overflow=hidden;connectable=0;fillColor=none;strokeColor=inherit;top=0;left=0;bottom=0;right=0;" parent="jIrVxHAiot5lpSCf16_U-71" vertex="1">
          <mxGeometry width="30" height="30" as="geometry">
            <mxRectangle width="30" height="30" as="alternateBounds" />
          </mxGeometry>
        </mxCell>
        <mxCell id="jIrVxHAiot5lpSCf16_U-73" value="FOREIGN KEY (PublisherID) REFERENCES Publisher(PublisherID)" style="shape=partialRectangle;overflow=hidden;connectable=0;fillColor=none;align=left;strokeColor=inherit;top=0;left=0;bottom=0;right=0;spacingLeft=6;" parent="jIrVxHAiot5lpSCf16_U-71" vertex="1">
          <mxGeometry x="30" width="290" height="30" as="geometry">
            <mxRectangle width="290" height="30" as="alternateBounds" />
          </mxGeometry>
        </mxCell>
        <mxCell id="jIrVxHAiot5lpSCf16_U-74" value="Book_Branch" style="shape=table;startSize=30;container=1;collapsible=1;childLayout=tableLayout;fixedRows=1;rowLines=0;fontStyle=1;align=center;resizeLast=1;" parent="1" vertex="1">
          <mxGeometry x="-130" y="640" width="400" height="180" as="geometry" />
        </mxCell>
        <mxCell id="jIrVxHAiot5lpSCf16_U-75" value="" style="shape=tableRow;horizontal=0;startSize=0;swimlaneHead=0;swimlaneBody=0;fillColor=none;collapsible=0;dropTarget=0;points=[[0,0.5],[1,0.5]];portConstraint=eastwest;strokeColor=inherit;top=0;left=0;right=0;bottom=1;" parent="jIrVxHAiot5lpSCf16_U-74" vertex="1">
          <mxGeometry y="30" width="400" height="30" as="geometry" />
        </mxCell>
        <mxCell id="jIrVxHAiot5lpSCf16_U-76" value="PK" style="shape=partialRectangle;overflow=hidden;connectable=0;fillColor=none;strokeColor=inherit;top=0;left=0;bottom=0;right=0;fontStyle=1;" parent="jIrVxHAiot5lpSCf16_U-75" vertex="1">
          <mxGeometry width="30" height="30" as="geometry">
            <mxRectangle width="30" height="30" as="alternateBounds" />
          </mxGeometry>
        </mxCell>
        <mxCell id="jIrVxHAiot5lpSCf16_U-77" value="BranchID INT" style="shape=partialRectangle;overflow=hidden;connectable=0;fillColor=none;align=left;strokeColor=inherit;top=0;left=0;bottom=0;right=0;spacingLeft=6;fontStyle=5;" parent="jIrVxHAiot5lpSCf16_U-75" vertex="1">
          <mxGeometry x="30" width="370" height="30" as="geometry">
            <mxRectangle width="370" height="30" as="alternateBounds" />
          </mxGeometry>
        </mxCell>
        <mxCell id="jIrVxHAiot5lpSCf16_U-78" value="" style="shape=tableRow;horizontal=0;startSize=0;swimlaneHead=0;swimlaneBody=0;fillColor=none;collapsible=0;dropTarget=0;points=[[0,0.5],[1,0.5]];portConstraint=eastwest;strokeColor=inherit;top=0;left=0;right=0;bottom=1;" parent="jIrVxHAiot5lpSCf16_U-74" vertex="1">
          <mxGeometry y="60" width="400" height="30" as="geometry" />
        </mxCell>
        <mxCell id="jIrVxHAiot5lpSCf16_U-79" value="PK" style="shape=partialRectangle;overflow=hidden;connectable=0;fillColor=none;strokeColor=inherit;top=0;left=0;bottom=0;right=0;fontStyle=1;" parent="jIrVxHAiot5lpSCf16_U-78" vertex="1">
          <mxGeometry width="30" height="30" as="geometry">
            <mxRectangle width="30" height="30" as="alternateBounds" />
          </mxGeometry>
        </mxCell>
        <mxCell id="jIrVxHAiot5lpSCf16_U-80" value="ISBN CHAR(17)" style="shape=partialRectangle;overflow=hidden;connectable=0;fillColor=none;align=left;strokeColor=inherit;top=0;left=0;bottom=0;right=0;spacingLeft=6;fontStyle=5;" parent="jIrVxHAiot5lpSCf16_U-78" vertex="1">
          <mxGeometry x="30" width="370" height="30" as="geometry">
            <mxRectangle width="370" height="30" as="alternateBounds" />
          </mxGeometry>
        </mxCell>
        <mxCell id="jIrVxHAiot5lpSCf16_U-81" value="" style="shape=tableRow;horizontal=0;startSize=0;swimlaneHead=0;swimlaneBody=0;fillColor=none;collapsible=0;dropTarget=0;points=[[0,0.5],[1,0.5]];portConstraint=eastwest;strokeColor=inherit;top=0;left=0;right=0;bottom=0;" parent="jIrVxHAiot5lpSCf16_U-74" vertex="1">
          <mxGeometry y="90" width="400" height="30" as="geometry" />
        </mxCell>
        <mxCell id="jIrVxHAiot5lpSCf16_U-82" value="" style="shape=partialRectangle;overflow=hidden;connectable=0;fillColor=none;strokeColor=inherit;top=0;left=0;bottom=0;right=0;" parent="jIrVxHAiot5lpSCf16_U-81" vertex="1">
          <mxGeometry width="30" height="30" as="geometry">
            <mxRectangle width="30" height="30" as="alternateBounds" />
          </mxGeometry>
        </mxCell>
        <mxCell id="jIrVxHAiot5lpSCf16_U-83" value="StockLevel INT DEFAULT 0 CHECK (StockLevel &gt;= 0)" style="shape=partialRectangle;overflow=hidden;connectable=0;fillColor=none;align=left;strokeColor=inherit;top=0;left=0;bottom=0;right=0;spacingLeft=6;" parent="jIrVxHAiot5lpSCf16_U-81" vertex="1">
          <mxGeometry x="30" width="370" height="30" as="geometry">
            <mxRectangle width="370" height="30" as="alternateBounds" />
          </mxGeometry>
        </mxCell>
        <mxCell id="jIrVxHAiot5lpSCf16_U-84" value="" style="shape=tableRow;horizontal=0;startSize=0;swimlaneHead=0;swimlaneBody=0;fillColor=none;collapsible=0;dropTarget=0;points=[[0,0.5],[1,0.5]];portConstraint=eastwest;strokeColor=inherit;top=0;left=0;right=0;bottom=0;" parent="jIrVxHAiot5lpSCf16_U-74" vertex="1">
          <mxGeometry y="120" width="400" height="30" as="geometry" />
        </mxCell>
        <mxCell id="jIrVxHAiot5lpSCf16_U-85" value="" style="shape=partialRectangle;overflow=hidden;connectable=0;fillColor=none;strokeColor=inherit;top=0;left=0;bottom=0;right=0;" parent="jIrVxHAiot5lpSCf16_U-84" vertex="1">
          <mxGeometry width="30" height="30" as="geometry">
            <mxRectangle width="30" height="30" as="alternateBounds" />
          </mxGeometry>
        </mxCell>
        <mxCell id="jIrVxHAiot5lpSCf16_U-86" value="FOREIGN KEY (ISBN) REFERENCES Book(ISBN)" style="shape=partialRectangle;overflow=hidden;connectable=0;fillColor=none;align=left;strokeColor=inherit;top=0;left=0;bottom=0;right=0;spacingLeft=6;" parent="jIrVxHAiot5lpSCf16_U-84" vertex="1">
          <mxGeometry x="30" width="370" height="30" as="geometry">
            <mxRectangle width="370" height="30" as="alternateBounds" />
          </mxGeometry>
        </mxCell>
        <mxCell id="jIrVxHAiot5lpSCf16_U-87" value="" style="shape=tableRow;horizontal=0;startSize=0;swimlaneHead=0;swimlaneBody=0;fillColor=none;collapsible=0;dropTarget=0;points=[[0,0.5],[1,0.5]];portConstraint=eastwest;strokeColor=inherit;top=0;left=0;right=0;bottom=0;" parent="jIrVxHAiot5lpSCf16_U-74" vertex="1">
          <mxGeometry y="150" width="400" height="30" as="geometry" />
        </mxCell>
        <mxCell id="jIrVxHAiot5lpSCf16_U-88" value="" style="shape=partialRectangle;overflow=hidden;connectable=0;fillColor=none;strokeColor=inherit;top=0;left=0;bottom=0;right=0;" parent="jIrVxHAiot5lpSCf16_U-87" vertex="1">
          <mxGeometry width="30" height="30" as="geometry">
            <mxRectangle width="30" height="30" as="alternateBounds" />
          </mxGeometry>
        </mxCell>
        <mxCell id="jIrVxHAiot5lpSCf16_U-89" value="FOREIGN KEY (BranchID) REFERENCES Branch(BranchID)" style="shape=partialRectangle;overflow=hidden;connectable=0;fillColor=none;align=left;strokeColor=inherit;top=0;left=0;bottom=0;right=0;spacingLeft=6;" parent="jIrVxHAiot5lpSCf16_U-87" vertex="1">
          <mxGeometry x="30" width="370" height="30" as="geometry">
            <mxRectangle width="370" height="30" as="alternateBounds" />
          </mxGeometry>
        </mxCell>
        <mxCell id="jIrVxHAiot5lpSCf16_U-90" value="Staff" style="shape=table;startSize=30;container=1;collapsible=1;childLayout=tableLayout;fixedRows=1;rowLines=0;fontStyle=1;align=center;resizeLast=1;" parent="1" vertex="1">
          <mxGeometry x="-300" y="80" width="610" height="450" as="geometry" />
        </mxCell>
        <mxCell id="jIrVxHAiot5lpSCf16_U-91" value="" style="shape=tableRow;horizontal=0;startSize=0;swimlaneHead=0;swimlaneBody=0;fillColor=none;collapsible=0;dropTarget=0;points=[[0,0.5],[1,0.5]];portConstraint=eastwest;strokeColor=inherit;top=0;left=0;right=0;bottom=1;" parent="jIrVxHAiot5lpSCf16_U-90" vertex="1">
          <mxGeometry y="30" width="610" height="30" as="geometry" />
        </mxCell>
        <mxCell id="jIrVxHAiot5lpSCf16_U-92" value="PK" style="shape=partialRectangle;overflow=hidden;connectable=0;fillColor=none;strokeColor=inherit;top=0;left=0;bottom=0;right=0;fontStyle=1;" parent="jIrVxHAiot5lpSCf16_U-91" vertex="1">
          <mxGeometry width="30" height="30" as="geometry">
            <mxRectangle width="30" height="30" as="alternateBounds" />
          </mxGeometry>
        </mxCell>
        <mxCell id="jIrVxHAiot5lpSCf16_U-93" value="BranchID INT NOT NULL" style="shape=partialRectangle;overflow=hidden;connectable=0;fillColor=none;align=left;strokeColor=inherit;top=0;left=0;bottom=0;right=0;spacingLeft=6;fontStyle=5;" parent="jIrVxHAiot5lpSCf16_U-91" vertex="1">
          <mxGeometry x="30" width="580" height="30" as="geometry">
            <mxRectangle width="580" height="30" as="alternateBounds" />
          </mxGeometry>
        </mxCell>
        <mxCell id="jIrVxHAiot5lpSCf16_U-94" value="" style="shape=tableRow;horizontal=0;startSize=0;swimlaneHead=0;swimlaneBody=0;fillColor=none;collapsible=0;dropTarget=0;points=[[0,0.5],[1,0.5]];portConstraint=eastwest;strokeColor=inherit;top=0;left=0;right=0;bottom=1;" parent="jIrVxHAiot5lpSCf16_U-90" vertex="1">
          <mxGeometry y="60" width="610" height="30" as="geometry" />
        </mxCell>
        <mxCell id="jIrVxHAiot5lpSCf16_U-95" value="PK" style="shape=partialRectangle;overflow=hidden;connectable=0;fillColor=none;strokeColor=inherit;top=0;left=0;bottom=0;right=0;fontStyle=1;" parent="jIrVxHAiot5lpSCf16_U-94" vertex="1">
          <mxGeometry width="30" height="30" as="geometry">
            <mxRectangle width="30" height="30" as="alternateBounds" />
          </mxGeometry>
        </mxCell>
        <mxCell id="jIrVxHAiot5lpSCf16_U-96" value="StaffID INT AUTO_INCREMENT " style="shape=partialRectangle;overflow=hidden;connectable=0;fillColor=none;align=left;strokeColor=inherit;top=0;left=0;bottom=0;right=0;spacingLeft=6;fontStyle=5;" parent="jIrVxHAiot5lpSCf16_U-94" vertex="1">
          <mxGeometry x="30" width="580" height="30" as="geometry">
            <mxRectangle width="580" height="30" as="alternateBounds" />
          </mxGeometry>
        </mxCell>
        <mxCell id="jIrVxHAiot5lpSCf16_U-97" value="" style="shape=tableRow;horizontal=0;startSize=0;swimlaneHead=0;swimlaneBody=0;fillColor=none;collapsible=0;dropTarget=0;points=[[0,0.5],[1,0.5]];portConstraint=eastwest;strokeColor=inherit;top=0;left=0;right=0;bottom=0;" parent="jIrVxHAiot5lpSCf16_U-90" vertex="1">
          <mxGeometry y="90" width="610" height="30" as="geometry" />
        </mxCell>
        <mxCell id="jIrVxHAiot5lpSCf16_U-98" value="" style="shape=partialRectangle;overflow=hidden;connectable=0;fillColor=none;strokeColor=inherit;top=0;left=0;bottom=0;right=0;" parent="jIrVxHAiot5lpSCf16_U-97" vertex="1">
          <mxGeometry width="30" height="30" as="geometry">
            <mxRectangle width="30" height="30" as="alternateBounds" />
          </mxGeometry>
        </mxCell>
        <mxCell id="jIrVxHAiot5lpSCf16_U-99" value="FirstName VARCHAR(50) NOT NULL" style="shape=partialRectangle;overflow=hidden;connectable=0;fillColor=none;align=left;strokeColor=inherit;top=0;left=0;bottom=0;right=0;spacingLeft=6;" parent="jIrVxHAiot5lpSCf16_U-97" vertex="1">
          <mxGeometry x="30" width="580" height="30" as="geometry">
            <mxRectangle width="580" height="30" as="alternateBounds" />
          </mxGeometry>
        </mxCell>
        <mxCell id="jIrVxHAiot5lpSCf16_U-100" value="" style="shape=tableRow;horizontal=0;startSize=0;swimlaneHead=0;swimlaneBody=0;fillColor=none;collapsible=0;dropTarget=0;points=[[0,0.5],[1,0.5]];portConstraint=eastwest;strokeColor=inherit;top=0;left=0;right=0;bottom=0;" parent="jIrVxHAiot5lpSCf16_U-90" vertex="1">
          <mxGeometry y="120" width="610" height="30" as="geometry" />
        </mxCell>
        <mxCell id="jIrVxHAiot5lpSCf16_U-101" value="" style="shape=partialRectangle;overflow=hidden;connectable=0;fillColor=none;strokeColor=inherit;top=0;left=0;bottom=0;right=0;" parent="jIrVxHAiot5lpSCf16_U-100" vertex="1">
          <mxGeometry width="30" height="30" as="geometry">
            <mxRectangle width="30" height="30" as="alternateBounds" />
          </mxGeometry>
        </mxCell>
        <mxCell id="jIrVxHAiot5lpSCf16_U-102" value="LastName VARCHAR(50) NOT NULL" style="shape=partialRectangle;overflow=hidden;connectable=0;fillColor=none;align=left;strokeColor=inherit;top=0;left=0;bottom=0;right=0;spacingLeft=6;" parent="jIrVxHAiot5lpSCf16_U-100" vertex="1">
          <mxGeometry x="30" width="580" height="30" as="geometry">
            <mxRectangle width="580" height="30" as="alternateBounds" />
          </mxGeometry>
        </mxCell>
        <mxCell id="jIrVxHAiot5lpSCf16_U-103" value="" style="shape=tableRow;horizontal=0;startSize=0;swimlaneHead=0;swimlaneBody=0;fillColor=none;collapsible=0;dropTarget=0;points=[[0,0.5],[1,0.5]];portConstraint=eastwest;strokeColor=inherit;top=0;left=0;right=0;bottom=0;" parent="jIrVxHAiot5lpSCf16_U-90" vertex="1">
          <mxGeometry y="150" width="610" height="30" as="geometry" />
        </mxCell>
        <mxCell id="jIrVxHAiot5lpSCf16_U-104" value="" style="shape=partialRectangle;overflow=hidden;connectable=0;fillColor=none;strokeColor=inherit;top=0;left=0;bottom=0;right=0;" parent="jIrVxHAiot5lpSCf16_U-103" vertex="1">
          <mxGeometry width="30" height="30" as="geometry">
            <mxRectangle width="30" height="30" as="alternateBounds" />
          </mxGeometry>
        </mxCell>
        <mxCell id="jIrVxHAiot5lpSCf16_U-105" value="Role ENUM(&#39;Sales Assistant&#39;,&#39;Stock Manager&#39;,&#39;Supervisor&#39;) NOT NULL" style="shape=partialRectangle;overflow=hidden;connectable=0;fillColor=none;align=left;strokeColor=inherit;top=0;left=0;bottom=0;right=0;spacingLeft=6;" parent="jIrVxHAiot5lpSCf16_U-103" vertex="1">
          <mxGeometry x="30" width="580" height="30" as="geometry">
            <mxRectangle width="580" height="30" as="alternateBounds" />
          </mxGeometry>
        </mxCell>
        <mxCell id="jIrVxHAiot5lpSCf16_U-106" value="" style="shape=tableRow;horizontal=0;startSize=0;swimlaneHead=0;swimlaneBody=0;fillColor=none;collapsible=0;dropTarget=0;points=[[0,0.5],[1,0.5]];portConstraint=eastwest;strokeColor=inherit;top=0;left=0;right=0;bottom=0;" parent="jIrVxHAiot5lpSCf16_U-90" vertex="1">
          <mxGeometry y="180" width="610" height="30" as="geometry" />
        </mxCell>
        <mxCell id="jIrVxHAiot5lpSCf16_U-107" value="" style="shape=partialRectangle;overflow=hidden;connectable=0;fillColor=none;strokeColor=inherit;top=0;left=0;bottom=0;right=0;" parent="jIrVxHAiot5lpSCf16_U-106" vertex="1">
          <mxGeometry width="30" height="30" as="geometry">
            <mxRectangle width="30" height="30" as="alternateBounds" />
          </mxGeometry>
        </mxCell>
        <mxCell id="jIrVxHAiot5lpSCf16_U-108" value="EmploymentType ENUM(&#39;Permanent&#39;,&#39;Casual&#39;) NOT NULL" style="shape=partialRectangle;overflow=hidden;connectable=0;fillColor=none;align=left;strokeColor=inherit;top=0;left=0;bottom=0;right=0;spacingLeft=6;" parent="jIrVxHAiot5lpSCf16_U-106" vertex="1">
          <mxGeometry x="30" width="580" height="30" as="geometry">
            <mxRectangle width="580" height="30" as="alternateBounds" />
          </mxGeometry>
        </mxCell>
        <mxCell id="jIrVxHAiot5lpSCf16_U-109" value="" style="shape=tableRow;horizontal=0;startSize=0;swimlaneHead=0;swimlaneBody=0;fillColor=none;collapsible=0;dropTarget=0;points=[[0,0.5],[1,0.5]];portConstraint=eastwest;strokeColor=inherit;top=0;left=0;right=0;bottom=0;" parent="jIrVxHAiot5lpSCf16_U-90" vertex="1">
          <mxGeometry y="210" width="610" height="30" as="geometry" />
        </mxCell>
        <mxCell id="jIrVxHAiot5lpSCf16_U-110" value="" style="shape=partialRectangle;overflow=hidden;connectable=0;fillColor=none;strokeColor=inherit;top=0;left=0;bottom=0;right=0;" parent="jIrVxHAiot5lpSCf16_U-109" vertex="1">
          <mxGeometry width="30" height="30" as="geometry">
            <mxRectangle width="30" height="30" as="alternateBounds" />
          </mxGeometry>
        </mxCell>
        <mxCell id="jIrVxHAiot5lpSCf16_U-111" value="AnnualSalary DECIMAL(10,2)" style="shape=partialRectangle;overflow=hidden;connectable=0;fillColor=none;align=left;strokeColor=inherit;top=0;left=0;bottom=0;right=0;spacingLeft=6;" parent="jIrVxHAiot5lpSCf16_U-109" vertex="1">
          <mxGeometry x="30" width="580" height="30" as="geometry">
            <mxRectangle width="580" height="30" as="alternateBounds" />
          </mxGeometry>
        </mxCell>
        <mxCell id="jIrVxHAiot5lpSCf16_U-112" value="" style="shape=tableRow;horizontal=0;startSize=0;swimlaneHead=0;swimlaneBody=0;fillColor=none;collapsible=0;dropTarget=0;points=[[0,0.5],[1,0.5]];portConstraint=eastwest;strokeColor=inherit;top=0;left=0;right=0;bottom=0;" parent="jIrVxHAiot5lpSCf16_U-90" vertex="1">
          <mxGeometry y="240" width="610" height="30" as="geometry" />
        </mxCell>
        <mxCell id="jIrVxHAiot5lpSCf16_U-113" value="" style="shape=partialRectangle;overflow=hidden;connectable=0;fillColor=none;strokeColor=inherit;top=0;left=0;bottom=0;right=0;" parent="jIrVxHAiot5lpSCf16_U-112" vertex="1">
          <mxGeometry width="30" height="30" as="geometry">
            <mxRectangle width="30" height="30" as="alternateBounds" />
          </mxGeometry>
        </mxCell>
        <mxCell id="jIrVxHAiot5lpSCf16_U-114" value="HourlyRate DECIMAL(5,2)" style="shape=partialRectangle;overflow=hidden;connectable=0;fillColor=none;align=left;strokeColor=inherit;top=0;left=0;bottom=0;right=0;spacingLeft=6;" parent="jIrVxHAiot5lpSCf16_U-112" vertex="1">
          <mxGeometry x="30" width="580" height="30" as="geometry">
            <mxRectangle width="580" height="30" as="alternateBounds" />
          </mxGeometry>
        </mxCell>
        <mxCell id="jIrVxHAiot5lpSCf16_U-115" value="" style="shape=tableRow;horizontal=0;startSize=0;swimlaneHead=0;swimlaneBody=0;fillColor=none;collapsible=0;dropTarget=0;points=[[0,0.5],[1,0.5]];portConstraint=eastwest;strokeColor=inherit;top=0;left=0;right=0;bottom=0;" parent="jIrVxHAiot5lpSCf16_U-90" vertex="1">
          <mxGeometry y="270" width="610" height="30" as="geometry" />
        </mxCell>
        <mxCell id="jIrVxHAiot5lpSCf16_U-116" value="" style="shape=partialRectangle;overflow=hidden;connectable=0;fillColor=none;strokeColor=inherit;top=0;left=0;bottom=0;right=0;" parent="jIrVxHAiot5lpSCf16_U-115" vertex="1">
          <mxGeometry width="30" height="30" as="geometry">
            <mxRectangle width="30" height="30" as="alternateBounds" />
          </mxGeometry>
        </mxCell>
        <mxCell id="jIrVxHAiot5lpSCf16_U-117" value="SupervisorID INT" style="shape=partialRectangle;overflow=hidden;connectable=0;fillColor=none;align=left;strokeColor=inherit;top=0;left=0;bottom=0;right=0;spacingLeft=6;" parent="jIrVxHAiot5lpSCf16_U-115" vertex="1">
          <mxGeometry x="30" width="580" height="30" as="geometry">
            <mxRectangle width="580" height="30" as="alternateBounds" />
          </mxGeometry>
        </mxCell>
        <mxCell id="jIrVxHAiot5lpSCf16_U-118" value="" style="shape=tableRow;horizontal=0;startSize=0;swimlaneHead=0;swimlaneBody=0;fillColor=none;collapsible=0;dropTarget=0;points=[[0,0.5],[1,0.5]];portConstraint=eastwest;strokeColor=inherit;top=0;left=0;right=0;bottom=0;" parent="jIrVxHAiot5lpSCf16_U-90" vertex="1">
          <mxGeometry y="300" width="610" height="30" as="geometry" />
        </mxCell>
        <mxCell id="jIrVxHAiot5lpSCf16_U-119" value="" style="shape=partialRectangle;overflow=hidden;connectable=0;fillColor=none;strokeColor=inherit;top=0;left=0;bottom=0;right=0;" parent="jIrVxHAiot5lpSCf16_U-118" vertex="1">
          <mxGeometry width="30" height="30" as="geometry">
            <mxRectangle width="30" height="30" as="alternateBounds" />
          </mxGeometry>
        </mxCell>
        <mxCell id="jIrVxHAiot5lpSCf16_U-120" value="FOREIGN KEY (SupervisorID) REFERENCES Staff(StaffID)" style="shape=partialRectangle;overflow=hidden;connectable=0;fillColor=none;align=left;strokeColor=inherit;top=0;left=0;bottom=0;right=0;spacingLeft=6;" parent="jIrVxHAiot5lpSCf16_U-118" vertex="1">
          <mxGeometry x="30" width="580" height="30" as="geometry">
            <mxRectangle width="580" height="30" as="alternateBounds" />
          </mxGeometry>
        </mxCell>
        <mxCell id="jIrVxHAiot5lpSCf16_U-121" value="" style="shape=tableRow;horizontal=0;startSize=0;swimlaneHead=0;swimlaneBody=0;fillColor=none;collapsible=0;dropTarget=0;points=[[0,0.5],[1,0.5]];portConstraint=eastwest;strokeColor=inherit;top=0;left=0;right=0;bottom=0;" parent="jIrVxHAiot5lpSCf16_U-90" vertex="1">
          <mxGeometry y="330" width="610" height="30" as="geometry" />
        </mxCell>
        <mxCell id="jIrVxHAiot5lpSCf16_U-122" value="" style="shape=partialRectangle;overflow=hidden;connectable=0;fillColor=none;strokeColor=inherit;top=0;left=0;bottom=0;right=0;" parent="jIrVxHAiot5lpSCf16_U-121" vertex="1">
          <mxGeometry width="30" height="30" as="geometry">
            <mxRectangle width="30" height="30" as="alternateBounds" />
          </mxGeometry>
        </mxCell>
        <mxCell id="jIrVxHAiot5lpSCf16_U-123" value="FOREIGN KEY (BranchID) REFERENCES Branch(BranchID)" style="shape=partialRectangle;overflow=hidden;connectable=0;fillColor=none;align=left;strokeColor=inherit;top=0;left=0;bottom=0;right=0;spacingLeft=6;" parent="jIrVxHAiot5lpSCf16_U-121" vertex="1">
          <mxGeometry x="30" width="580" height="30" as="geometry">
            <mxRectangle width="580" height="30" as="alternateBounds" />
          </mxGeometry>
        </mxCell>
        <mxCell id="jIrVxHAiot5lpSCf16_U-124" value="" style="shape=tableRow;horizontal=0;startSize=0;swimlaneHead=0;swimlaneBody=0;fillColor=none;collapsible=0;dropTarget=0;points=[[0,0.5],[1,0.5]];portConstraint=eastwest;strokeColor=inherit;top=0;left=0;right=0;bottom=0;" parent="jIrVxHAiot5lpSCf16_U-90" vertex="1">
          <mxGeometry y="360" width="610" height="30" as="geometry" />
        </mxCell>
        <mxCell id="jIrVxHAiot5lpSCf16_U-125" value="" style="shape=partialRectangle;overflow=hidden;connectable=0;fillColor=none;strokeColor=inherit;top=0;left=0;bottom=0;right=0;" parent="jIrVxHAiot5lpSCf16_U-124" vertex="1">
          <mxGeometry width="30" height="30" as="geometry">
            <mxRectangle width="30" height="30" as="alternateBounds" />
          </mxGeometry>
        </mxCell>
        <mxCell id="jIrVxHAiot5lpSCf16_U-126" value="CHECK (" style="shape=partialRectangle;overflow=hidden;connectable=0;fillColor=none;align=left;strokeColor=inherit;top=0;left=0;bottom=0;right=0;spacingLeft=6;" parent="jIrVxHAiot5lpSCf16_U-124" vertex="1">
          <mxGeometry x="30" width="580" height="30" as="geometry">
            <mxRectangle width="580" height="30" as="alternateBounds" />
          </mxGeometry>
        </mxCell>
        <mxCell id="jIrVxHAiot5lpSCf16_U-127" value="" style="shape=tableRow;horizontal=0;startSize=0;swimlaneHead=0;swimlaneBody=0;fillColor=none;collapsible=0;dropTarget=0;points=[[0,0.5],[1,0.5]];portConstraint=eastwest;strokeColor=inherit;top=0;left=0;right=0;bottom=0;" parent="jIrVxHAiot5lpSCf16_U-90" vertex="1">
          <mxGeometry y="390" width="610" height="30" as="geometry" />
        </mxCell>
        <mxCell id="jIrVxHAiot5lpSCf16_U-128" value="" style="shape=partialRectangle;overflow=hidden;connectable=0;fillColor=none;strokeColor=inherit;top=0;left=0;bottom=0;right=0;" parent="jIrVxHAiot5lpSCf16_U-127" vertex="1">
          <mxGeometry width="30" height="30" as="geometry">
            <mxRectangle width="30" height="30" as="alternateBounds" />
          </mxGeometry>
        </mxCell>
        <mxCell id="jIrVxHAiot5lpSCf16_U-129" value="(EmploymentType = &#39;Permanent&#39; AND AnnualSalary IS NOT NULL AND HourlyRate IS NULL) OR" style="shape=partialRectangle;overflow=hidden;connectable=0;fillColor=none;align=left;strokeColor=inherit;top=0;left=0;bottom=0;right=0;spacingLeft=6;" parent="jIrVxHAiot5lpSCf16_U-127" vertex="1">
          <mxGeometry x="30" width="580" height="30" as="geometry">
            <mxRectangle width="580" height="30" as="alternateBounds" />
          </mxGeometry>
        </mxCell>
        <mxCell id="jIrVxHAiot5lpSCf16_U-130" value="" style="shape=tableRow;horizontal=0;startSize=0;swimlaneHead=0;swimlaneBody=0;fillColor=none;collapsible=0;dropTarget=0;points=[[0,0.5],[1,0.5]];portConstraint=eastwest;strokeColor=inherit;top=0;left=0;right=0;bottom=0;" parent="jIrVxHAiot5lpSCf16_U-90" vertex="1">
          <mxGeometry y="420" width="610" height="30" as="geometry" />
        </mxCell>
        <mxCell id="jIrVxHAiot5lpSCf16_U-131" value="" style="shape=partialRectangle;overflow=hidden;connectable=0;fillColor=none;strokeColor=inherit;top=0;left=0;bottom=0;right=0;" parent="jIrVxHAiot5lpSCf16_U-130" vertex="1">
          <mxGeometry width="30" height="30" as="geometry">
            <mxRectangle width="30" height="30" as="alternateBounds" />
          </mxGeometry>
        </mxCell>
        <mxCell id="jIrVxHAiot5lpSCf16_U-132" value="(EmploymentType = &#39;Casual&#39; AND HourlyRate IS NOT NULL AND AnnualSalary IS NULL)" style="shape=partialRectangle;overflow=hidden;connectable=0;fillColor=none;align=left;strokeColor=inherit;top=0;left=0;bottom=0;right=0;spacingLeft=6;" parent="jIrVxHAiot5lpSCf16_U-130" vertex="1">
          <mxGeometry x="30" width="580" height="30" as="geometry">
            <mxRectangle width="580" height="30" as="alternateBounds" />
          </mxGeometry>
        </mxCell>
        <mxCell id="jIrVxHAiot5lpSCf16_U-133" value="Member" style="shape=table;startSize=30;container=1;collapsible=1;childLayout=tableLayout;fixedRows=1;rowLines=0;fontStyle=1;align=center;resizeLast=1;" parent="1" vertex="1">
          <mxGeometry x="-980" y="270" width="390" height="180" as="geometry" />
        </mxCell>
        <mxCell id="jIrVxHAiot5lpSCf16_U-134" value="" style="shape=tableRow;horizontal=0;startSize=0;swimlaneHead=0;swimlaneBody=0;fillColor=none;collapsible=0;dropTarget=0;points=[[0,0.5],[1,0.5]];portConstraint=eastwest;strokeColor=inherit;top=0;left=0;right=0;bottom=1;" parent="jIrVxHAiot5lpSCf16_U-133" vertex="1">
          <mxGeometry y="30" width="390" height="30" as="geometry" />
        </mxCell>
        <mxCell id="jIrVxHAiot5lpSCf16_U-135" value="PK" style="shape=partialRectangle;overflow=hidden;connectable=0;fillColor=none;strokeColor=inherit;top=0;left=0;bottom=0;right=0;fontStyle=1;" parent="jIrVxHAiot5lpSCf16_U-134" vertex="1">
          <mxGeometry width="30" height="30" as="geometry">
            <mxRectangle width="30" height="30" as="alternateBounds" />
          </mxGeometry>
        </mxCell>
        <mxCell id="jIrVxHAiot5lpSCf16_U-136" value="MemberID INT AUTO_INCREMENT " style="shape=partialRectangle;overflow=hidden;connectable=0;fillColor=none;align=left;strokeColor=inherit;top=0;left=0;bottom=0;right=0;spacingLeft=6;fontStyle=5;" parent="jIrVxHAiot5lpSCf16_U-134" vertex="1">
          <mxGeometry x="30" width="360" height="30" as="geometry">
            <mxRectangle width="360" height="30" as="alternateBounds" />
          </mxGeometry>
        </mxCell>
        <mxCell id="jIrVxHAiot5lpSCf16_U-137" value="" style="shape=tableRow;horizontal=0;startSize=0;swimlaneHead=0;swimlaneBody=0;fillColor=none;collapsible=0;dropTarget=0;points=[[0,0.5],[1,0.5]];portConstraint=eastwest;strokeColor=inherit;top=0;left=0;right=0;bottom=0;" parent="jIrVxHAiot5lpSCf16_U-133" vertex="1">
          <mxGeometry y="60" width="390" height="30" as="geometry" />
        </mxCell>
        <mxCell id="jIrVxHAiot5lpSCf16_U-138" value="" style="shape=partialRectangle;overflow=hidden;connectable=0;fillColor=none;strokeColor=inherit;top=0;left=0;bottom=0;right=0;" parent="jIrVxHAiot5lpSCf16_U-137" vertex="1">
          <mxGeometry width="30" height="30" as="geometry">
            <mxRectangle width="30" height="30" as="alternateBounds" />
          </mxGeometry>
        </mxCell>
        <mxCell id="jIrVxHAiot5lpSCf16_U-139" value="FirstName VARCHAR(50) NOT NULL" style="shape=partialRectangle;overflow=hidden;connectable=0;fillColor=none;align=left;strokeColor=inherit;top=0;left=0;bottom=0;right=0;spacingLeft=6;" parent="jIrVxHAiot5lpSCf16_U-137" vertex="1">
          <mxGeometry x="30" width="360" height="30" as="geometry">
            <mxRectangle width="360" height="30" as="alternateBounds" />
          </mxGeometry>
        </mxCell>
        <mxCell id="jIrVxHAiot5lpSCf16_U-140" value="" style="shape=tableRow;horizontal=0;startSize=0;swimlaneHead=0;swimlaneBody=0;fillColor=none;collapsible=0;dropTarget=0;points=[[0,0.5],[1,0.5]];portConstraint=eastwest;strokeColor=inherit;top=0;left=0;right=0;bottom=0;" parent="jIrVxHAiot5lpSCf16_U-133" vertex="1">
          <mxGeometry y="90" width="390" height="30" as="geometry" />
        </mxCell>
        <mxCell id="jIrVxHAiot5lpSCf16_U-141" value="" style="shape=partialRectangle;overflow=hidden;connectable=0;fillColor=none;strokeColor=inherit;top=0;left=0;bottom=0;right=0;" parent="jIrVxHAiot5lpSCf16_U-140" vertex="1">
          <mxGeometry width="30" height="30" as="geometry">
            <mxRectangle width="30" height="30" as="alternateBounds" />
          </mxGeometry>
        </mxCell>
        <mxCell id="jIrVxHAiot5lpSCf16_U-142" value="LastName VARCHAR(50) NOT NULL" style="shape=partialRectangle;overflow=hidden;connectable=0;fillColor=none;align=left;strokeColor=inherit;top=0;left=0;bottom=0;right=0;spacingLeft=6;" parent="jIrVxHAiot5lpSCf16_U-140" vertex="1">
          <mxGeometry x="30" width="360" height="30" as="geometry">
            <mxRectangle width="360" height="30" as="alternateBounds" />
          </mxGeometry>
        </mxCell>
        <mxCell id="jIrVxHAiot5lpSCf16_U-143" value="" style="shape=tableRow;horizontal=0;startSize=0;swimlaneHead=0;swimlaneBody=0;fillColor=none;collapsible=0;dropTarget=0;points=[[0,0.5],[1,0.5]];portConstraint=eastwest;strokeColor=inherit;top=0;left=0;right=0;bottom=0;" parent="jIrVxHAiot5lpSCf16_U-133" vertex="1">
          <mxGeometry y="120" width="390" height="30" as="geometry" />
        </mxCell>
        <mxCell id="jIrVxHAiot5lpSCf16_U-144" value="" style="shape=partialRectangle;overflow=hidden;connectable=0;fillColor=none;strokeColor=inherit;top=0;left=0;bottom=0;right=0;" parent="jIrVxHAiot5lpSCf16_U-143" vertex="1">
          <mxGeometry width="30" height="30" as="geometry">
            <mxRectangle width="30" height="30" as="alternateBounds" />
          </mxGeometry>
        </mxCell>
        <mxCell id="jIrVxHAiot5lpSCf16_U-145" value="MembershipType ENUM(&#39;Platinum&#39;,&#39;Gold&#39;,&#39;Silver&#39;) NOT NULL" style="shape=partialRectangle;overflow=hidden;connectable=0;fillColor=none;align=left;strokeColor=inherit;top=0;left=0;bottom=0;right=0;spacingLeft=6;" parent="jIrVxHAiot5lpSCf16_U-143" vertex="1">
          <mxGeometry x="30" width="360" height="30" as="geometry">
            <mxRectangle width="360" height="30" as="alternateBounds" />
          </mxGeometry>
        </mxCell>
        <mxCell id="jIrVxHAiot5lpSCf16_U-146" value="" style="shape=tableRow;horizontal=0;startSize=0;swimlaneHead=0;swimlaneBody=0;fillColor=none;collapsible=0;dropTarget=0;points=[[0,0.5],[1,0.5]];portConstraint=eastwest;strokeColor=inherit;top=0;left=0;right=0;bottom=0;" parent="jIrVxHAiot5lpSCf16_U-133" vertex="1">
          <mxGeometry y="150" width="390" height="30" as="geometry" />
        </mxCell>
        <mxCell id="jIrVxHAiot5lpSCf16_U-147" value="" style="shape=partialRectangle;overflow=hidden;connectable=0;fillColor=none;strokeColor=inherit;top=0;left=0;bottom=0;right=0;" parent="jIrVxHAiot5lpSCf16_U-146" vertex="1">
          <mxGeometry width="30" height="30" as="geometry">
            <mxRectangle width="30" height="30" as="alternateBounds" />
          </mxGeometry>
        </mxCell>
        <mxCell id="jIrVxHAiot5lpSCf16_U-148" value="ExpiryDate DATE NOT NULL" style="shape=partialRectangle;overflow=hidden;connectable=0;fillColor=none;align=left;strokeColor=inherit;top=0;left=0;bottom=0;right=0;spacingLeft=6;" parent="jIrVxHAiot5lpSCf16_U-146" vertex="1">
          <mxGeometry x="30" width="360" height="30" as="geometry">
            <mxRectangle width="360" height="30" as="alternateBounds" />
          </mxGeometry>
        </mxCell>
        <mxCell id="jIrVxHAiot5lpSCf16_U-152" value="HAS_OPERATING_HOURS" style="shape=rhombus;double=1;perimeter=rhombusPerimeter;whiteSpace=wrap;html=1;align=center;gradientColor=#CCE5FF;fontStyle=1" parent="1" vertex="1">
          <mxGeometry x="-790" y="670" width="240" height="60" as="geometry" />
        </mxCell>
        <mxCell id="jIrVxHAiot5lpSCf16_U-155" value="" style="edgeStyle=entityRelationEdgeStyle;fontSize=12;html=1;endArrow=ERoneToMany;rounded=0;exitX=0.5;exitY=1;exitDx=0;exitDy=0;entryX=0.25;entryY=0;entryDx=0;entryDy=0;" parent="1" source="jIrVxHAiot5lpSCf16_U-152" target="jIrVxHAiot5lpSCf16_U-11" edge="1">
          <mxGeometry width="100" height="100" relative="1" as="geometry">
            <mxPoint x="-610" y="560" as="sourcePoint" />
            <mxPoint x="-510" y="580" as="targetPoint" />
          </mxGeometry>
        </mxCell>
        <mxCell id="jIrVxHAiot5lpSCf16_U-157" value="" style="edgeStyle=entityRelationEdgeStyle;fontSize=12;html=1;endArrow=ERmandOne;rounded=0;exitX=0.5;exitY=0;exitDx=0;exitDy=0;" parent="1" source="jIrVxHAiot5lpSCf16_U-152" target="jIrVxHAiot5lpSCf16_U-1" edge="1">
          <mxGeometry width="100" height="100" relative="1" as="geometry">
            <mxPoint x="-600" y="330" as="sourcePoint" />
            <mxPoint x="-500" y="230" as="targetPoint" />
          </mxGeometry>
        </mxCell>
        <mxCell id="jIrVxHAiot5lpSCf16_U-158" value="EMPLOYS" style="shape=rhombus;perimeter=rhombusPerimeter;whiteSpace=wrap;html=1;align=center;gradientColor=light-dark(#CCE5FF,#EDEDED);fontStyle=1" parent="1" vertex="1">
          <mxGeometry x="-520" y="235" width="120" height="60" as="geometry" />
        </mxCell>
        <mxCell id="jIrVxHAiot5lpSCf16_U-159" value="" style="edgeStyle=entityRelationEdgeStyle;fontSize=12;html=1;endArrow=ERmandOne;rounded=0;entryX=0.37;entryY=-0.017;entryDx=0;entryDy=0;entryPerimeter=0;exitX=0.5;exitY=1;exitDx=0;exitDy=0;" parent="1" source="jIrVxHAiot5lpSCf16_U-158" target="jIrVxHAiot5lpSCf16_U-1" edge="1">
          <mxGeometry width="100" height="100" relative="1" as="geometry">
            <mxPoint x="-650" y="440" as="sourcePoint" />
            <mxPoint x="-550" y="340" as="targetPoint" />
          </mxGeometry>
        </mxCell>
        <mxCell id="jIrVxHAiot5lpSCf16_U-160" value="" style="edgeStyle=entityRelationEdgeStyle;fontSize=12;html=1;endArrow=ERoneToMany;rounded=0;entryX=0.25;entryY=0;entryDx=0;entryDy=0;exitX=0.5;exitY=0;exitDx=0;exitDy=0;" parent="1" source="jIrVxHAiot5lpSCf16_U-158" target="jIrVxHAiot5lpSCf16_U-90" edge="1">
          <mxGeometry width="100" height="100" relative="1" as="geometry">
            <mxPoint x="-390" y="200" as="sourcePoint" />
            <mxPoint x="-290" y="100" as="targetPoint" />
          </mxGeometry>
        </mxCell>
        <mxCell id="jIrVxHAiot5lpSCf16_U-161" value="REPORTS_TO" style="shape=rhombus;perimeter=rhombusPerimeter;whiteSpace=wrap;html=1;align=center;gradientColor=#CCE5FF;fontStyle=1" parent="1" vertex="1">
          <mxGeometry x="160" y="5" width="120" height="60" as="geometry" />
        </mxCell>
        <mxCell id="jIrVxHAiot5lpSCf16_U-162" value="" style="edgeStyle=entityRelationEdgeStyle;fontSize=12;html=1;endArrow=ERzeroToOne;endFill=1;rounded=0;entryX=0.938;entryY=0.011;entryDx=0;entryDy=0;entryPerimeter=0;exitX=0;exitY=0.5;exitDx=0;exitDy=0;" parent="1" source="jIrVxHAiot5lpSCf16_U-161" target="jIrVxHAiot5lpSCf16_U-90" edge="1">
          <mxGeometry width="100" height="100" relative="1" as="geometry">
            <mxPoint x="150" y="110" as="sourcePoint" />
            <mxPoint x="250" y="10" as="targetPoint" />
          </mxGeometry>
        </mxCell>
        <mxCell id="jIrVxHAiot5lpSCf16_U-163" value="" style="edgeStyle=entityRelationEdgeStyle;fontSize=12;html=1;endArrow=ERmany;rounded=0;entryX=1.004;entryY=0.055;entryDx=0;entryDy=0;exitX=1;exitY=0.5;exitDx=0;exitDy=0;entryPerimeter=0;" parent="1" source="jIrVxHAiot5lpSCf16_U-161" target="jIrVxHAiot5lpSCf16_U-90" edge="1">
          <mxGeometry width="100" height="100" relative="1" as="geometry">
            <mxPoint x="340" y="84.99999999999989" as="sourcePoint" />
            <mxPoint x="200" y="159.9999999999999" as="targetPoint" />
          </mxGeometry>
        </mxCell>
        <mxCell id="jIrVxHAiot5lpSCf16_U-164" value="PUBLISHES" style="shape=rhombus;perimeter=rhombusPerimeter;whiteSpace=wrap;html=1;align=center;gradientColor=#CCE5FF;fontStyle=1" parent="1" vertex="1">
          <mxGeometry x="425" y="310" width="120" height="60" as="geometry" />
        </mxCell>
        <mxCell id="jIrVxHAiot5lpSCf16_U-165" value="" style="edgeStyle=entityRelationEdgeStyle;fontSize=12;html=1;endArrow=ERone;endFill=1;rounded=0;entryX=0.437;entryY=1.173;entryDx=0;entryDy=0;entryPerimeter=0;exitX=0.5;exitY=0;exitDx=0;exitDy=0;" parent="1" source="jIrVxHAiot5lpSCf16_U-164" target="jIrVxHAiot5lpSCf16_U-46" edge="1">
          <mxGeometry width="100" height="100" relative="1" as="geometry">
            <mxPoint x="370" y="340" as="sourcePoint" />
            <mxPoint x="470" y="240" as="targetPoint" />
          </mxGeometry>
        </mxCell>
        <mxCell id="jIrVxHAiot5lpSCf16_U-166" value="" style="edgeStyle=entityRelationEdgeStyle;fontSize=12;html=1;endArrow=ERmany;rounded=0;exitX=0.5;exitY=1;exitDx=0;exitDy=0;entryX=0.5;entryY=0;entryDx=0;entryDy=0;" parent="1" source="jIrVxHAiot5lpSCf16_U-164" target="jIrVxHAiot5lpSCf16_U-49" edge="1">
          <mxGeometry width="100" height="100" relative="1" as="geometry">
            <mxPoint x="460" y="470" as="sourcePoint" />
            <mxPoint x="560" y="370" as="targetPoint" />
          </mxGeometry>
        </mxCell>
        <mxCell id="jIrVxHAiot5lpSCf16_U-167" value="STOCKED_AT" style="shape=rhombus;perimeter=rhombusPerimeter;whiteSpace=wrap;html=1;align=center;fontStyle=1;gradientColor=#CCE5FF;" parent="1" vertex="1">
          <mxGeometry x="-290" y="620" width="120" height="60" as="geometry" />
        </mxCell>
        <mxCell id="jIrVxHAiot5lpSCf16_U-168" value="STORES" style="shape=rhombus;perimeter=rhombusPerimeter;whiteSpace=wrap;html=1;align=center;gradientColor=light-dark(#CCE5FF,#182E44);fontStyle=1" parent="1" vertex="1">
          <mxGeometry x="320" y="570" width="120" height="60" as="geometry" />
        </mxCell>
        <mxCell id="jIrVxHAiot5lpSCf16_U-170" value="" style="endArrow=none;html=1;rounded=0;entryX=0.009;entryY=0.08;entryDx=0;entryDy=0;entryPerimeter=0;" parent="1" target="jIrVxHAiot5lpSCf16_U-74" edge="1">
          <mxGeometry relative="1" as="geometry">
            <mxPoint x="-280" y="500" as="sourcePoint" />
            <mxPoint x="-330" y="680" as="targetPoint" />
            <Array as="points">
              <mxPoint x="-230" y="620" />
            </Array>
          </mxGeometry>
        </mxCell>
        <mxCell id="jIrVxHAiot5lpSCf16_U-171" value="M" style="resizable=0;html=1;whiteSpace=wrap;align=left;verticalAlign=bottom;" parent="jIrVxHAiot5lpSCf16_U-170" connectable="0" vertex="1">
          <mxGeometry x="-1" relative="1" as="geometry" />
        </mxCell>
        <mxCell id="jIrVxHAiot5lpSCf16_U-172" value="N" style="resizable=0;html=1;whiteSpace=wrap;align=right;verticalAlign=bottom;" parent="jIrVxHAiot5lpSCf16_U-170" connectable="0" vertex="1">
          <mxGeometry x="1" relative="1" as="geometry" />
        </mxCell>
        <mxCell id="jIrVxHAiot5lpSCf16_U-173" value="" style="endArrow=none;html=1;rounded=0;entryX=0;entryY=0;entryDx=0;entryDy=0;exitX=1;exitY=0;exitDx=0;exitDy=0;" parent="1" source="jIrVxHAiot5lpSCf16_U-74" target="jIrVxHAiot5lpSCf16_U-49" edge="1">
          <mxGeometry relative="1" as="geometry">
            <mxPoint x="220" y="820" as="sourcePoint" />
            <mxPoint x="380" y="820" as="targetPoint" />
          </mxGeometry>
        </mxCell>
        <mxCell id="jIrVxHAiot5lpSCf16_U-174" value="M" style="resizable=0;html=1;whiteSpace=wrap;align=left;verticalAlign=bottom;" parent="jIrVxHAiot5lpSCf16_U-173" connectable="0" vertex="1">
          <mxGeometry x="-1" relative="1" as="geometry" />
        </mxCell>
        <mxCell id="jIrVxHAiot5lpSCf16_U-175" value="N" style="resizable=0;html=1;whiteSpace=wrap;align=right;verticalAlign=bottom;" parent="jIrVxHAiot5lpSCf16_U-173" connectable="0" vertex="1">
          <mxGeometry x="1" relative="1" as="geometry" />
        </mxCell>
        <mxCell id="jIrVxHAiot5lpSCf16_U-176" value="" style="endArrow=none;html=1;rounded=0;entryX=0;entryY=0;entryDx=0;entryDy=0;exitX=0.5;exitY=0;exitDx=0;exitDy=0;" parent="1" source="jIrVxHAiot5lpSCf16_U-133" target="jIrVxHAiot5lpSCf16_U-1" edge="1">
          <mxGeometry relative="1" as="geometry">
            <mxPoint x="-770" y="480" as="sourcePoint" />
            <mxPoint x="-610" y="480" as="targetPoint" />
            <Array as="points">
              <mxPoint x="-570" y="270" />
            </Array>
          </mxGeometry>
        </mxCell>
        <mxCell id="voSUkIMtcBixkSNpo818-1" value="&lt;div&gt;&lt;font style=&quot;font-size: 26px; background-color: light-dark(#ffffff, var(--ge-dark-color, #121212));&quot;&gt;Name : Adnan Ahmed Layek&lt;/font&gt;&lt;/div&gt;&lt;div&gt;&lt;font style=&quot;font-size: 26px; background-color: light-dark(#ffffff, var(--ge-dark-color, #121212));&quot;&gt;Student ID : 64950&lt;/font&gt;&lt;/div&gt;" style="text;strokeColor=none;fillColor=none;html=1;fontSize=24;fontStyle=1;verticalAlign=middle;align=center;" vertex="1" parent="1">
          <mxGeometry x="-130" y="920" width="580" height="210" as="geometry" />
        </mxCell>
      </root>
    </mxGraphModel>
  </diagram>
</mxfile>
